<svg xmlns="http://www.w3.org/2000/svg" xmlns:xlink="http://www.w3.org/1999/xlink" version="1.1" width="256" height="256" viewBox="0 0 256 256" xml:space="preserve">

<defs>
</defs>
<g style="stroke: none; stroke-width: 0; stroke-dasharray: none; stroke-linecap: butt; stroke-linejoin: miter; stroke-miterlimit: 10; fill: none; fill-rule: nonzero; opacity: 1;" transform="translate(1.4065934065934016 1.4065934065934016) scale(2.81 2.81)" >
	<path d="M 58.178 21.325 L 55.186 0 h -3.18 l -1 22.237 c 0 0.829 -0.671 1.5 -1.5 1.5 s -1.5 -0.671 -1.5 -1.5 L 47.006 0 H 43.61 l -1 22.237 c 0 0.829 -0.671 1.5 -1.5 1.5 s -1.5 -0.671 -1.5 -1.5 L 38.61 0 h -3.795 l -2.992 21.325 c -0.15 3.223 1.027 6.366 3.256 8.699 l 4.862 5.087 l -2.118 47.384 C 37.64 86.584 40.906 90 45 90 s 7.36 -3.416 7.177 -7.505 l -2.118 -47.384 l 4.862 -5.087 C 57.151 27.692 58.327 24.548 58.178 21.325 z" style="stroke: none; stroke-width: 1; stroke-dasharray: none; stroke-linecap: butt; stroke-linejoin: miter; stroke-miterlimit: 10; fill: rgb(0,0,0); fill-rule: nonzero; opacity: 1;" transform=" matrix(1 0 0 1 0 0) " stroke-linecap="round" />
</g>
</svg>